<?xml version="1.0" encoding="UTF-8" standalone="no"?>
<svg
   viewBox="0 0 128 128"
   version="1.1"
   id="svg54"
   sodipodi:docname="reply.svg"
   inkscape:version="1.2.2 (b0a8486541, 2022-12-01)"
   xmlns:inkscape="http://www.inkscape.org/namespaces/inkscape"
   xmlns:sodipodi="http://sodipodi.sourceforge.net/DTD/sodipodi-0.dtd"
   xmlns="http://www.w3.org/2000/svg"
   xmlns:svg="http://www.w3.org/2000/svg">
  <defs
     id="defs58" />
  <sodipodi:namedview
     id="namedview56"
     pagecolor="#505050"
     bordercolor="#eeeeee"
     borderopacity="1"
     inkscape:showpageshadow="0"
     inkscape:pageopacity="0"
     inkscape:pagecheckerboard="0"
     inkscape:deskcolor="#505050"
     showgrid="false"
     inkscape:zoom="7.375"
     inkscape:cx="56.135593"
     inkscape:cy="67.118644"
     inkscape:window-width="1920"
     inkscape:window-height="1139"
     inkscape:window-x="1920"
     inkscape:window-y="1080"
     inkscape:window-maximized="1"
     inkscape:current-layer="svg54" />
  <path
     id="rect393"
     style="fill:#ffffff;stroke-width:10"
     d="m 52,22 c -2.199998,0 -4,1.800002 -4,4 v 8 c 0,2.199998 1.800002,4 4,4 h 32 c 6.499994,0 12,7.300009 12,16 0,8.699991 -5.500006,16 -12,16 H 50 c -1.099999,0 -2,-0.900001 -2,-2 V 54 c 0,-3.399997 -3.999612,-5.299998 -6.599609,-3 l -24,24 c -1.799999,1.599998 -1.799999,4.400002 0,6 l 24,24 C 44.000388,107.3 48,105.4 48,102 V 88 c 0,-1.099999 0.900001,-2 2,-2 H 84 C 99.499984,86 112,71.699982 112,54 112,36.300018 99.499984,22 84,22 Z"
     sodipodi:nodetypes="ssssssssssccccsssssss" />
</svg>
